<svg width="18" height="18" viewBox="0 0 18 18" fill="none" xmlns="http://www.w3.org/2000/svg">
<path d="M16.137 1.125H1.863C1.45541 1.125 1.125 1.45541 1.125 1.863V16.137C1.125 16.5446 1.45541 16.875 1.863 16.875H16.137C16.5446 16.875 16.875 16.5446 16.875 16.137V1.863C16.875 1.45541 16.5446 1.125 16.137 1.125Z" fill="#3178C6"/>
<path fill-rule="evenodd" clip-rule="evenodd" d="M10.2628 13.3645V15.0903C10.5763 15.245 10.9105 15.354 11.255 15.4137C11.6532 15.4872 12.0573 15.5234 12.4622 15.5217C12.8567 15.5236 13.2504 15.4838 13.6367 15.403C13.9834 15.333 14.3143 15.1995 14.6126 15.0093C14.8895 14.8305 15.1178 14.5858 15.2769 14.2971C15.5619 13.6994 15.5995 13.0133 15.3815 12.388C15.2896 12.1542 15.1525 11.9407 14.9782 11.7597C14.7911 11.5673 14.5786 11.4013 14.3465 11.2664C14.0794 11.1099 13.8018 10.972 13.5157 10.8535C13.2907 10.7601 13.0882 10.6694 12.9082 10.5813C12.7483 10.5047 12.5953 10.4146 12.4509 10.3118C12.3378 10.2325 12.2395 10.1339 12.1607 10.0205C12.0925 9.91747 12.057 9.79632 12.0588 9.67284C12.0573 9.55919 12.089 9.44757 12.15 9.35165C12.2162 9.25126 12.3045 9.16736 12.4082 9.1064C12.5349 9.03179 12.6728 8.97805 12.8165 8.94721C12.993 8.908 13.1735 8.88912 13.3543 8.89096C13.5063 8.89148 13.6582 8.90238 13.8088 8.92359C13.9714 8.94557 14.1323 8.97884 14.2903 9.02315C14.451 9.06769 14.6082 9.1241 14.7605 9.1919C14.9084 9.2578 15.0498 9.33727 15.183 9.42927V7.81884C14.9057 7.71394 14.6182 7.63853 14.3252 7.59384C13.9713 7.54235 13.614 7.51809 13.2564 7.52127C12.8655 7.51917 12.4758 7.56354 12.0954 7.65346C11.7516 7.73203 11.4246 7.87168 11.1302 8.06577C10.8566 8.24801 10.6307 8.49317 10.4715 8.78071C10.3027 9.10002 10.2192 9.45749 10.229 9.81852C10.2166 10.296 10.3738 10.7624 10.6728 11.1348C11.0397 11.5477 11.5023 11.8643 12.02 12.0567C12.2563 12.1542 12.4766 12.2496 12.681 12.343C12.8654 12.4251 13.0426 12.5223 13.2108 12.6338C13.3465 12.7221 13.4657 12.8335 13.563 12.9629C13.6485 13.0803 13.6938 13.2221 13.6923 13.3673C13.6931 13.4762 13.6652 13.5833 13.6113 13.6778C13.5515 13.7795 13.4675 13.8647 13.3667 13.9259C13.2405 14.0028 13.1025 14.0583 12.9583 14.0901C12.7704 14.1322 12.5782 14.152 12.3857 14.1492C12.0078 14.1485 11.633 14.0819 11.2781 13.9523C10.9073 13.8185 10.5634 13.6195 10.2628 13.3645ZM7.36365 9.06815H9.61365V7.64671H3.34009V9.06815H5.57996V15.3985H7.36365V9.06815Z" fill="white"/>
</svg>
